<svg xmlns="http://www.w3.org/2000/svg" width="1280" height="1024" viewBox="0 0 1280 1024">
  <defs>
    <linearGradient id="bg" x1="0" y1="0" x2="0" y2="1">
      <stop offset="0" stop-color="#261e15"/>
      <stop offset="1" stop-color="#14100c"/>
    </linearGradient>
    <linearGradient id="slat" x1="0" y1="0" x2="0" y2="1">
      <stop offset="0" stop-color="#3a2e20"/>
      <stop offset="1" stop-color="#211a12"/>
    </linearGradient>
    <radialGradient id="lamp" cx="0.5" cy="0.32" r="0.55">
      <stop offset="0" stop-color="#e8b878" stop-opacity="0.5"/>
      <stop offset="0.45" stop-color="#c99b5f" stop-opacity="0.16"/>
      <stop offset="1" stop-color="#c99b5f" stop-opacity="0"/>
    </radialGradient>
    <filter id="soft" x="-50%" y="-50%" width="200%" height="200%"><feGaussianBlur stdDeviation="30"/></filter>
    <filter id="grain"><feTurbulence type="fractalNoise" baseFrequency="0.85" numOctaves="2" stitchTiles="stitch"/><feColorMatrix values="0 0 0 0 0  0 0 0 0 0  0 0 0 0 0  0 0 0 0.07 0"/></filter>
  </defs>
  <rect width="1280" height="1024" fill="url(#bg)"/>
  <g>
    <rect x="60" y="0" width="46" height="1024" fill="url(#slat)" opacity="0.85"/>
    <rect x="150" y="0" width="46" height="1024" fill="url(#slat)" opacity="0.7"/>
    <rect x="240" y="0" width="46" height="1024" fill="url(#slat)" opacity="0.55"/>
    <rect x="330" y="0" width="46" height="1024" fill="url(#slat)" opacity="0.4"/>
    <rect x="994" y="0" width="46" height="1024" fill="url(#slat)" opacity="0.4"/>
    <rect x="1084" y="0" width="46" height="1024" fill="url(#slat)" opacity="0.6"/>
    <rect x="1174" y="0" width="46" height="1024" fill="url(#slat)" opacity="0.8"/>
  </g>
  <rect width="1280" height="1024" fill="url(#lamp)"/>
  <ellipse cx="640" cy="330" rx="60" ry="60" fill="#f2c98c" opacity="0.55" filter="url(#soft)"/>
  <rect x="420" y="640" width="440" height="26" rx="4" fill="#0e0b08" opacity="0.9"/>
  <rect x="440" y="666" width="400" height="180" fill="#1a1410" opacity="0.9"/>
  <ellipse cx="640" cy="652" rx="150" ry="14" fill="#d4703a" opacity="0.28" filter="url(#soft)"/>
  <rect width="1280" height="1024" filter="url(#grain)"/>
</svg>
